<?xml version="1.0" encoding="UTF-8" standalone="no"?>
<!DOCTYPE svg PUBLIC "-//W3C//DTD SVG 1.1//EN" "http://www.w3.org/Graphics/SVG/1.1/DTD/svg11.dtd">
<svg width="100%" height="100%" viewBox="0 0 3515 2999" version="1.1" xmlns="http://www.w3.org/2000/svg" xmlns:xlink="http://www.w3.org/1999/xlink" xml:space="preserve" xmlns:serif="http://www.serif.com/" style="fill-rule:evenodd;clip-rule:evenodd;stroke-linejoin:round;stroke-miterlimit:2;">
    <g transform="matrix(1,0,0,1,-14.4425,-313.793)">
        <g transform="matrix(1.38719,0,0,1.38719,-685.972,-1385.92)">
            <g transform="matrix(1.26877,0,0,1.26877,-359.866,-466.086)">
                <path d="M2225.28,2052.23C2228.27,2051.97 2231.3,2051.84 2234.35,2051.84C2267.65,2051.84 2297.4,2067.17 2316.92,2091.14L2499.74,1964.26C2498.46,1958.2 2497.78,1951.91 2497.78,1945.47C2497.78,1895.63 2538.24,1855.16 2588.09,1855.16C2637.93,1855.16 2678.39,1895.63 2678.39,1945.47C2678.39,1993.25 2641.2,2032.42 2594.2,2035.57L2557.24,2275.04C2598.71,2289.59 2628.49,2329.11 2628.49,2375.53C2628.49,2434.28 2580.79,2481.97 2522.03,2481.97C2463.28,2481.97 2415.59,2434.28 2415.59,2375.53C2415.59,2362.35 2417.98,2349.73 2422.37,2338.08L2298.27,2243.4C2280.47,2256.8 2258.33,2264.74 2234.35,2264.74L2234.06,2264.74L2123.58,2599.19L2216.28,2632.33C2237.97,2599.62 2275.13,2578.04 2317.28,2578.04C2384.13,2578.04 2438.41,2632.32 2438.41,2699.17C2438.41,2766.02 2384.13,2820.3 2317.28,2820.3C2250.43,2820.3 2196.15,2766.02 2196.15,2699.17C2196.15,2692.72 2196.66,2686.39 2197.63,2680.22L2107.46,2647.98L2063.05,2782.41C2091.41,2799.68 2110.36,2830.89 2110.36,2866.5C2110.36,2920.79 2066.28,2964.87 2011.98,2964.87C1957.69,2964.87 1913.61,2920.79 1913.61,2866.5C1913.61,2841.74 1922.77,2819.1 1937.9,2801.8L1793.94,2583.97C1786.23,2586.58 1778.1,2588.25 1769.67,2588.86L1743.81,2828.49C1780.04,2844.11 1805.43,2880.16 1805.43,2922.09C1805.43,2978.31 1759.79,3023.95 1703.57,3023.95C1647.35,3023.95 1601.7,2978.31 1601.7,2922.09C1601.7,2869.45 1641.72,2826.08 1692.97,2820.77L1719.06,2579.04C1714.43,2576.76 1710,2574.12 1705.81,2571.16L1398.45,2787.45C1402.98,2799.68 1405.46,2812.89 1405.46,2826.68C1405.46,2888.98 1354.88,2939.55 1292.59,2939.55C1230.29,2939.55 1179.72,2888.98 1179.72,2826.68C1179.72,2775.11 1214.38,2731.57 1261.67,2718.11L1199.58,2392.15C1185.78,2390.65 1172.72,2386.66 1160.87,2380.64L1073.53,2480.5C1084.99,2496.67 1091.72,2516.41 1091.72,2537.71C1091.72,2592.42 1047.31,2636.83 992.613,2636.83C937.912,2636.83 893.501,2592.42 893.501,2537.71C893.501,2503.51 910.867,2473.33 937.256,2455.51L828.218,2110.25C827.67,2110.26 827.12,2110.26 826.57,2110.26C764.275,2110.26 713.698,2059.68 713.698,1997.39C713.698,1935.09 764.275,1884.52 826.57,1884.52C888.866,1884.52 939.442,1935.09 939.442,1997.39C939.442,2015.32 935.255,2032.27 927.804,2047.33L1134.43,2197.84C1150.72,2182.47 1171.58,2171.89 1194.75,2168.36L1258.4,1713.86C1220.55,1695.63 1194.39,1656.89 1194.39,1612.1C1194.39,1549.8 1244.97,1499.23 1307.27,1499.23C1369.56,1499.23 1420.14,1549.8 1420.14,1612.1C1420.14,1644.08 1406.81,1672.97 1385.41,1693.51L1504.22,1923.98L1913.54,1486.87C1903.8,1471.4 1898.16,1453.1 1898.16,1433.48C1898.16,1378.07 1943.14,1333.09 1998.55,1333.09C2053.96,1333.09 2098.95,1378.07 2098.95,1433.48C2098.95,1468.05 2081.44,1498.57 2054.81,1516.63L2225.28,2052.23ZM2008.39,1533.4C2005.61,1533.67 2002.79,1533.83 1999.95,1533.87L1909.34,1942.56C1932.64,1957.21 1948.91,1982.04 1951.88,2010.8L2151.97,2090.9C2159.44,2081.79 2168.39,2073.93 2178.45,2067.71L2008.39,1533.4ZM1947.83,1530.26L1530.82,1975.58L1591.42,2093.13L1768.87,2017.64C1770.28,1968.59 1810.26,1929.13 1859.52,1928.56L1947.83,1530.26ZM1301.33,2348.73C1288.42,2365.49 1270.9,2378.53 1250.69,2385.94L1313.51,2715.75C1335.17,2719.82 1354.65,2730.08 1370.05,2744.62L1672.91,2531.5C1667.24,2519.08 1664.08,2505.28 1664.08,2490.74C1664.08,2490.3 1664.09,2489.85 1664.09,2489.4L1301.33,2348.73ZM1323.51,2263.25C1324.32,2268.7 1324.73,2274.27 1324.73,2279.94C1324.73,2286.51 1324.17,2292.96 1323.09,2299.23L1679.73,2437.53C1684.49,2430.14 1690.22,2423.42 1696.74,2417.57L1564.37,2160.79L1323.51,2263.25ZM1746.35,2393.68C1749.73,2393.12 1753.17,2392.74 1756.65,2392.54L1820.84,2103.04C1804.86,2095.34 1791.44,2083.14 1782.25,2068.1L1615.16,2139.18L1746.35,2393.68ZM1857.46,2465.1C1859.66,2473.28 1860.84,2481.88 1860.84,2490.74C1860.84,2495.55 1860.49,2500.28 1859.83,2504.91L2075.19,2581.89L2184.12,2252.15C2178.41,2249.09 2173.01,2245.52 2167.98,2241.5L1857.46,2465.1ZM1307.71,2213.83L1540.63,2114.74L1490.88,2018.23L1307.71,2213.83ZM1255.36,2175.76C1258.46,2177.06 1261.48,2178.49 1264.43,2180.04L1464.28,1966.62L1337.58,1720.85C1331.44,1722.56 1325.09,1723.76 1318.58,1724.41L1255.36,2175.76ZM2059.07,2630.69L1839.32,2552.13C1838.44,2553.23 1837.54,2554.31 1836.61,2555.37L1980.6,2773.24C1990.46,2769.92 2001.01,2768.12 2011.98,2768.12C2012.55,2768.12 2013.11,2768.12 2013.67,2768.13L2059.07,2630.69ZM1807.22,2403.13C1814.83,2407.03 1821.86,2411.89 1828.16,2417.55L2019.59,2284.69L2136.58,2200.44C2131,2187.51 2127.9,2173.26 2127.9,2158.29C2127.9,2152.91 2128.3,2147.62 2129.07,2142.45L1939.81,2066.68C1925.67,2090.76 1900.87,2107.84 1871.9,2111.41L1807.22,2403.13ZM1102.9,2250.42L886.804,2093.01L992.28,2426.99L996.309,2438.67C1010.55,2439.19 1024.03,2442.73 1036.12,2448.65L1122.92,2349.4C1107.93,2330.24 1098.99,2306.12 1098.99,2279.94C1098.99,2269.72 1100.35,2259.83 1102.9,2250.42ZM2518.34,2002.81L2336.68,2128.88C2339.36,2138.23 2340.8,2148.09 2340.8,2158.29C2340.8,2173.51 2337.6,2187.98 2331.84,2201.07L2453.62,2293.99C2469.37,2280.76 2489,2272.01 2510.54,2269.69L2548.09,2026.44C2536.57,2020.73 2526.43,2012.64 2518.34,2002.81Z"/>
            </g>
            <g transform="matrix(1.26877,0,0,1.26877,-400.604,-450.116)">
                <path d="M2225.28,2052.23C2228.27,2051.97 2231.3,2051.84 2234.35,2051.84C2267.65,2051.84 2297.4,2067.17 2316.92,2091.14L2499.74,1964.26C2498.46,1958.2 2497.78,1951.91 2497.78,1945.47C2497.78,1895.63 2538.24,1855.16 2588.09,1855.16C2637.93,1855.16 2678.39,1895.63 2678.39,1945.47C2678.39,1993.25 2641.2,2032.42 2594.2,2035.57L2557.24,2275.04C2598.71,2289.59 2628.49,2329.11 2628.49,2375.53C2628.49,2434.28 2580.79,2481.97 2522.03,2481.97C2463.28,2481.97 2415.59,2434.28 2415.59,2375.53C2415.59,2362.35 2417.98,2349.73 2422.37,2338.08L2298.27,2243.4C2280.47,2256.8 2258.33,2264.74 2234.35,2264.74L2234.06,2264.74L2123.58,2599.19L2216.28,2632.33C2237.97,2599.62 2275.13,2578.04 2317.28,2578.04C2384.13,2578.04 2438.41,2632.32 2438.41,2699.17C2438.41,2766.02 2384.13,2820.3 2317.28,2820.3C2250.43,2820.3 2196.15,2766.02 2196.15,2699.17C2196.15,2692.72 2196.66,2686.39 2197.63,2680.22L2107.46,2647.98L2063.05,2782.41C2091.41,2799.68 2110.36,2830.89 2110.36,2866.5C2110.36,2920.79 2066.28,2964.87 2011.98,2964.87C1957.69,2964.87 1913.61,2920.79 1913.61,2866.5C1913.61,2841.74 1922.77,2819.1 1937.9,2801.8L1793.94,2583.97C1786.23,2586.58 1778.1,2588.25 1769.67,2588.86L1743.81,2828.49C1780.04,2844.11 1805.43,2880.16 1805.43,2922.09C1805.43,2978.31 1759.79,3023.95 1703.57,3023.95C1647.35,3023.95 1601.7,2978.31 1601.7,2922.09C1601.7,2869.45 1641.72,2826.08 1692.97,2820.77L1719.06,2579.04C1714.43,2576.76 1710,2574.12 1705.81,2571.16L1398.45,2787.45C1402.98,2799.68 1405.46,2812.89 1405.46,2826.68C1405.46,2888.98 1354.88,2939.55 1292.59,2939.55C1230.29,2939.55 1179.72,2888.98 1179.72,2826.68C1179.72,2775.11 1214.38,2731.57 1261.67,2718.11L1199.58,2392.15C1185.78,2390.65 1172.72,2386.66 1160.87,2380.64L1073.53,2480.5C1084.99,2496.67 1091.72,2516.41 1091.72,2537.71C1091.72,2592.42 1047.31,2636.83 992.613,2636.83C937.912,2636.83 893.501,2592.42 893.501,2537.71C893.501,2503.51 910.867,2473.33 937.256,2455.51L828.218,2110.25C827.67,2110.26 827.12,2110.26 826.57,2110.26C764.275,2110.26 713.698,2059.68 713.698,1997.39C713.698,1935.09 764.275,1884.52 826.57,1884.52C888.866,1884.52 939.442,1935.09 939.442,1997.39C939.442,2015.32 935.255,2032.27 927.804,2047.33L1134.43,2197.84C1150.72,2182.47 1171.58,2171.89 1194.75,2168.36L1258.4,1713.86C1220.55,1695.63 1194.39,1656.89 1194.39,1612.1C1194.39,1549.8 1244.97,1499.23 1307.27,1499.23C1369.56,1499.23 1420.14,1549.8 1420.14,1612.1C1420.14,1644.08 1406.81,1672.97 1385.41,1693.51L1504.22,1923.98L1913.54,1486.87C1903.8,1471.4 1898.16,1453.1 1898.16,1433.48C1898.16,1378.07 1943.14,1333.09 1998.55,1333.09C2053.96,1333.09 2098.95,1378.07 2098.95,1433.48C2098.95,1468.05 2081.44,1498.57 2054.81,1516.63L2225.28,2052.23ZM2008.39,1533.4C2005.61,1533.67 2002.79,1533.83 1999.95,1533.87L1909.34,1942.56C1932.64,1957.21 1948.91,1982.04 1951.88,2010.8L2151.97,2090.9C2159.44,2081.79 2168.39,2073.93 2178.45,2067.71L2008.39,1533.4ZM1947.83,1530.26L1530.82,1975.58L1591.42,2093.13L1768.87,2017.64C1770.28,1968.59 1810.26,1929.13 1859.52,1928.56L1947.83,1530.26ZM1301.33,2348.73C1288.42,2365.49 1270.9,2378.53 1250.69,2385.94L1313.51,2715.75C1335.17,2719.82 1354.65,2730.08 1370.05,2744.62L1672.91,2531.5C1667.24,2519.08 1664.08,2505.28 1664.08,2490.74C1664.08,2490.3 1664.09,2489.85 1664.09,2489.4L1301.33,2348.73ZM1323.51,2263.25C1324.32,2268.7 1324.73,2274.27 1324.73,2279.94C1324.73,2286.51 1324.17,2292.96 1323.09,2299.23L1679.73,2437.53C1684.49,2430.14 1690.22,2423.42 1696.74,2417.57L1564.37,2160.79L1323.51,2263.25ZM1746.35,2393.68C1749.73,2393.12 1753.17,2392.74 1756.65,2392.54L1820.84,2103.04C1804.86,2095.34 1791.44,2083.14 1782.25,2068.1L1615.16,2139.18L1746.35,2393.68ZM1857.46,2465.1C1859.66,2473.28 1860.84,2481.88 1860.84,2490.74C1860.84,2495.55 1860.49,2500.28 1859.83,2504.91L2075.19,2581.89L2184.12,2252.15C2178.41,2249.09 2173.01,2245.52 2167.98,2241.5L1857.46,2465.1ZM1307.71,2213.83L1540.63,2114.74L1490.88,2018.23L1307.71,2213.83ZM1255.36,2175.76C1258.46,2177.06 1261.48,2178.49 1264.43,2180.04L1464.28,1966.62L1337.58,1720.85C1331.44,1722.56 1325.09,1723.76 1318.58,1724.41L1255.36,2175.76ZM2059.07,2630.69L1839.32,2552.13C1838.44,2553.23 1837.54,2554.31 1836.61,2555.37L1980.6,2773.24C1990.46,2769.92 2001.01,2768.12 2011.98,2768.12C2012.55,2768.12 2013.11,2768.12 2013.67,2768.13L2059.07,2630.69ZM1807.22,2403.13C1814.83,2407.03 1821.86,2411.89 1828.16,2417.55L2019.59,2284.69L2136.58,2200.44C2131,2187.51 2127.9,2173.26 2127.9,2158.29C2127.9,2152.91 2128.3,2147.62 2129.07,2142.45L1939.81,2066.68C1925.67,2090.76 1900.87,2107.84 1871.9,2111.41L1807.22,2403.13ZM1102.9,2250.42L886.804,2093.01L992.28,2426.99L996.309,2438.67C1010.55,2439.19 1024.03,2442.73 1036.12,2448.65L1122.92,2349.4C1107.93,2330.24 1098.99,2306.12 1098.99,2279.94C1098.99,2269.72 1100.35,2259.83 1102.9,2250.42ZM2518.34,2002.81L2336.68,2128.88C2339.36,2138.23 2340.8,2148.09 2340.8,2158.29C2340.8,2173.51 2337.6,2187.98 2331.84,2201.07L2453.62,2293.99C2469.37,2280.76 2489,2272.01 2510.54,2269.69L2548.09,2026.44C2536.57,2020.73 2526.43,2012.64 2518.34,2002.81Z" style="fill:url(#_Linear1);"/>
            </g>
        </g>
    </g>
    <defs>
        <linearGradient id="_Linear1" x1="0" y1="0" x2="1" y2="0" gradientUnits="userSpaceOnUse" gradientTransform="matrix(1964.69,0,0,1690.87,713.698,2178.52)"><stop offset="0" style="stop-color:rgb(106,0,69);stop-opacity:1"/><stop offset="0.07" style="stop-color:rgb(122,22,77);stop-opacity:1"/><stop offset="0.13" style="stop-color:rgb(129,31,80);stop-opacity:1"/><stop offset="0.25" style="stop-color:rgb(146,55,89);stop-opacity:1"/><stop offset="0.33" style="stop-color:rgb(157,69,94);stop-opacity:1"/><stop offset="0.68" style="stop-color:rgb(208,137,118);stop-opacity:1"/><stop offset="0.83" style="stop-color:rgb(230,167,128);stop-opacity:1"/><stop offset="0.95" style="stop-color:rgb(248,191,137);stop-opacity:1"/><stop offset="1" style="stop-color:rgb(255,200,140);stop-opacity:1"/><stop offset="1" style="stop-color:white;stop-opacity:1"/></linearGradient>
    </defs>
</svg>
